<svg id="visual" viewBox="0 0 960 540" width="960" height="540" xmlns="http://www.w3.org/2000/svg" xmlns:xlink="http://www.w3.org/1999/xlink" version="1.1"><path d="M0 228L87 206L175 125L262 195L349 147L436 206L524 98L611 114L698 158L785 147L873 185L960 82L960 0L873 0L785 0L698 0L611 0L524 0L436 0L349 0L262 0L175 0L87 0L0 0Z" fill="#00cc8e"></path><path d="M0 266L87 266L175 212L262 255L349 185L436 276L524 190L611 179L698 233L785 228L873 228L960 114L960 80L873 183L785 145L698 156L611 112L524 96L436 204L349 145L262 193L175 123L87 204L0 226Z" fill="#00b98a"></path><path d="M0 357L87 352L175 325L262 374L349 330L436 347L524 363L611 384L698 368L785 379L873 330L960 298L960 112L873 226L785 226L698 231L611 177L524 188L436 274L349 183L262 253L175 210L87 264L0 264Z" fill="#00a784"></path><path d="M0 433L87 433L175 449L262 428L349 433L436 487L524 509L611 498L698 476L785 433L873 433L960 422L960 296L873 328L785 377L698 366L611 382L524 361L436 345L349 328L262 372L175 323L87 350L0 355Z" fill="#00957c"></path><path d="M0 541L87 541L175 541L262 541L349 541L436 541L524 541L611 541L698 541L785 541L873 541L960 541L960 420L873 431L785 431L698 474L611 496L524 507L436 485L349 431L262 426L175 447L87 431L0 431Z" fill="#038373"></path></svg>